<svg width="957" height="316" viewBox="0 0 957 316" fill="none" xmlns="http://www.w3.org/2000/svg">
<path d="M66.9819 144.282C63.1109 144.282 60.5798 145.622 59.3887 148.302C58.1977 150.833 57.6021 154.779 57.6021 160.138H77.0316V154.779C77.0316 147.781 73.6817 144.282 66.9819 144.282ZM67.8752 112.346C83.2103 112.346 94.1533 116.069 100.704 123.513C107.404 130.808 110.754 141.305 110.754 155.002C110.754 156.789 110.233 164.828 109.191 179.121H58.2721C58.2721 190.288 63.4086 195.871 73.6817 195.871C78.5949 195.871 88.1979 194.159 102.491 190.734L105.617 218.427C93.1111 222.298 80.6048 224.233 68.0985 224.233C52.7634 224.233 41.0015 219.246 32.8128 209.27C24.6242 199.146 20.5299 185.449 20.5299 168.178C20.5299 130.957 36.3116 112.346 67.8752 112.346ZM199.5 142.942L198.384 189.171C198.384 192 199.054 193.935 200.394 194.977C201.882 195.871 204.339 196.317 207.763 196.317L204.413 223.34C195.778 223.936 191.014 224.233 190.12 224.233C179.103 224.233 172.105 220.437 169.128 212.844H168.011C162.502 220.437 154.016 224.233 142.552 224.233C133.768 224.233 126.993 221.404 122.229 215.747C117.614 210.089 115.306 202.347 115.306 192.521C115.306 180.163 119.103 171.603 126.696 166.838C134.438 162.074 146.572 158.947 163.098 157.459V152.099C163.098 147.93 161.014 145.846 156.845 145.846C149.698 145.846 138.532 148.004 123.346 152.322L117.763 119.716C136.82 114.803 152.676 112.346 165.331 112.346C177.986 112.346 186.845 114.803 191.907 119.716C196.969 124.629 199.5 132.371 199.5 142.942ZM156.398 198.104C161.907 198.104 164.661 195.201 164.661 189.394V178.451C159.152 179.196 155.207 180.387 152.825 182.024C150.592 183.513 149.475 186.119 149.475 189.841C149.475 195.35 151.783 198.104 156.398 198.104ZM208.109 146.739C208.109 135.87 211.384 127.458 217.935 121.503C224.635 115.399 233.791 112.346 245.404 112.346C257.017 112.346 268.779 113.835 280.69 116.813L276.893 147.855C261.707 144.431 251.509 142.719 246.298 142.719C243.171 142.719 241.608 143.984 241.608 146.515C241.608 148.153 243.32 149.642 246.744 150.982C258.655 155.3 267.588 160.213 273.544 165.722C279.648 171.23 282.7 179.493 282.7 190.511C282.7 201.528 279.871 209.94 274.214 215.747C268.556 221.404 259.846 224.233 248.084 224.233C236.471 224.233 224.858 222.744 213.245 219.767L215.702 189.618C230.59 193.637 240.193 195.647 244.511 195.647C248.978 195.647 251.211 194.605 251.211 192.521C251.211 190.436 249.573 188.799 246.298 187.608C233.047 182.546 223.369 177.186 217.265 171.528C211.161 165.722 208.109 157.459 208.109 146.739ZM380.695 115.026L353.003 225.127C350.174 236.144 346.005 243.812 340.496 248.129C334.988 252.596 325.98 254.829 313.474 254.829H291.141L287.791 226.02H300.297C305.36 226.02 307.891 224.01 307.891 219.99C307.891 219.097 307.593 217.161 306.997 214.184L281.315 115.026H321.067L331.117 181.801H333.126L344.07 115.026H380.695ZM585.552 219.543V252.596H548.033V115.026H578.852L581.086 121.726H582.202C586.371 115.622 594.56 112.57 606.768 112.57C618.977 112.57 627.538 116.813 632.451 125.299C637.513 133.786 640.044 147.707 640.044 167.062C640.044 186.417 637.364 200.858 632.004 210.387C626.793 219.767 617.116 224.457 602.972 224.457C596.421 224.457 590.912 222.819 586.445 219.543H585.552ZM601.185 188.501C601.781 185.821 602.153 183.216 602.302 180.685C602.451 178.153 602.525 173.389 602.525 166.392C602.525 159.245 602.004 153.811 600.962 150.089C599.919 146.218 597.761 144.282 594.485 144.282C591.359 144.282 588.232 145.176 585.105 146.962V193.191C587.934 194.531 590.614 195.201 593.145 195.201C595.825 195.201 597.686 194.754 598.728 193.861C599.919 192.819 600.738 191.032 601.185 188.501ZM687.572 222H650.723V116.143H687.572V222ZM653.627 107.657C650.5 104.977 648.937 100.659 648.937 94.7036C648.937 88.7483 650.5 84.3562 653.627 81.5274C656.753 78.6986 661.89 77.2842 669.036 77.2842C676.183 77.2842 681.319 78.6986 684.446 81.5274C687.572 84.3562 689.136 88.7483 689.136 94.7036C689.136 100.51 687.572 104.828 684.446 107.657C681.319 110.337 676.183 111.676 669.036 111.676C661.89 111.676 656.753 110.337 653.627 107.657ZM746.178 144.952C741.861 144.952 738.957 146.962 737.468 150.982C735.98 154.853 735.235 160.957 735.235 169.295C735.235 177.632 735.905 183.662 737.245 187.384C738.734 191.106 741.712 192.967 746.178 192.967C750.794 192.967 756.749 192.149 764.044 190.511L768.064 219.097C757.791 222.521 748.635 224.233 740.595 224.233C726.451 224.233 715.731 219.469 708.436 209.94C701.29 200.412 697.716 187.087 697.716 169.965C697.716 152.843 701.438 138.997 708.883 128.426C716.327 117.706 727.121 112.346 741.265 112.346C751.836 112.346 761.364 114.133 769.851 117.706L765.831 150.535C757.196 146.813 750.645 144.952 746.178 144.952ZM768.45 146.739C768.45 135.87 771.725 127.458 778.276 121.503C784.976 115.399 794.132 112.346 805.745 112.346C817.358 112.346 829.12 113.835 841.031 116.813L837.235 147.855C822.048 144.431 811.85 142.719 806.639 142.719C803.512 142.719 801.949 143.984 801.949 146.515C801.949 148.153 803.661 149.642 807.085 150.982C818.996 155.3 827.929 160.213 833.885 165.722C839.989 171.23 843.041 179.493 843.041 190.511C843.041 201.528 840.212 209.94 834.555 215.747C828.897 221.404 820.187 224.233 808.425 224.233C796.812 224.233 785.199 222.744 773.586 219.767L776.043 189.618C790.931 193.637 800.534 195.647 804.852 195.647C809.319 195.647 811.552 194.605 811.552 192.521C811.552 190.436 809.914 188.799 806.639 187.608C793.388 182.546 783.71 177.186 777.606 171.528C771.502 165.722 768.45 157.459 768.45 146.739ZM941.036 115.026L913.344 225.127C910.515 236.144 906.346 243.812 900.837 248.129C895.329 252.596 886.321 254.829 873.815 254.829H851.482L848.132 226.02H860.639C865.701 226.02 868.232 224.01 868.232 219.99C868.232 219.097 867.934 217.161 867.338 214.184L841.656 115.026H881.408L891.458 181.801H893.468L904.411 115.026H941.036Z" fill="#353535"/>
<path d="M429.179 47.8863C430.281 41.8739 436.049 37.8931 442.061 38.9947L518.583 53.0171C524.595 54.1189 528.577 59.8864 527.475 65.899L490.29 268.821C489.188 274.833 483.42 278.814 477.408 277.712L400.886 263.69C394.874 262.588 390.893 256.821 391.995 250.808L429.179 47.8863ZM433.143 129.311C430.137 128.76 427.254 130.75 426.703 133.756L417.007 186.663C416.457 189.669 418.447 192.552 421.454 193.103L482.783 204.342C485.789 204.893 488.673 202.902 489.224 199.896L498.92 146.991C499.47 143.984 497.48 141.1 494.473 140.549L433.143 129.311ZM449.701 53.9908C445.192 53.1647 440.866 56.1505 440.04 60.6597L431.342 108.123C430.516 112.632 433.502 116.957 438.011 117.784L494.558 128.146C499.068 128.972 503.394 125.987 504.22 121.477L512.918 74.0152C513.744 69.5056 510.758 65.1794 506.249 64.3531L449.701 53.9908Z" fill="#FFE850"/>
</svg>
